<svg id="Group_830" data-name="Group 830" xmlns="http://www.w3.org/2000/svg" xmlns:xlink="http://www.w3.org/1999/xlink" width="16.133" height="15.33" viewBox="0 0 16.133 15.33">
  <defs>
    <clipPath id="clip-path">
      <rect id="Rectangle_145" data-name="Rectangle 145" width="16.133" height="15.33" fill="none"/>
    </clipPath>
  </defs>
  <g id="Group_450" data-name="Group 450" clip-path="url(#clip-path)">
    <path id="Path_28" data-name="Path 28" d="M69.621,9.268a1.237,1.237,0,0,1,.129-.187Q70.926,7.9,72.106,6.719a.828.828,0,0,1,1.276,1.054,1.964,1.964,0,0,1-.178.194l-3.786,3.786a.873.873,0,0,1-1.43-.005q-1.92-1.92-3.839-3.84a.846.846,0,0,1-.113-1.156.822.822,0,0,1,1.259-.042q1.024,1.016,2.038,2.041c.163.164.319.333.494.516a.459.459,0,0,0,.044-.273q0-3.987,0-7.975A1.657,1.657,0,0,1,67.9.645a.821.821,0,0,1,1.605.007,1.709,1.709,0,0,1,.031.375q0,3.978,0,7.956a.352.352,0,0,0,.082.285" transform="translate(-60.639 0)"/>
    <path id="Path_29" data-name="Path 29" d="M8.046,273.157H.863a.814.814,0,0,1-.839-.619.831.831,0,0,1,.738-1.022c.056,0,.113,0,.17,0H15.2a.832.832,0,0,1,.917.712.81.81,0,0,1-.741.93c-.22.01-.44,0-.66,0H8.046" transform="translate(0 -257.83)"/>
  </g>
</svg>
