<svg id="Group_828" data-name="Group 828" xmlns="http://www.w3.org/2000/svg" xmlns:xlink="http://www.w3.org/1999/xlink" width="16.004" height="14.266" viewBox="0 0 16.004 14.266">
  <defs>
    <clipPath id="clip-path">
      <rect id="Rectangle_144" data-name="Rectangle 144" width="16.004" height="14.266" fill="#0d0d0d"/>
    </clipPath>
  </defs>
  <g id="Group_448" data-name="Group 448" clip-path="url(#clip-path)">
    <path id="Path_27" data-name="Path 27" d="M16,5.356a8.389,8.389,0,0,1-.229,1.034,7.426,7.426,0,0,1-1.593,2.622A30.614,30.614,0,0,1,11.219,11.8q-1.27,1.1-2.546,2.187a.922.922,0,0,1-1.279.033c-1.671-1.448-3.4-2.827-4.973-4.39A9.739,9.739,0,0,1,.665,7.374,5.283,5.283,0,0,1,.056,4.042,4.813,4.813,0,0,1,1.208,1.475,4.217,4.217,0,0,1,3.748.065,4.075,4.075,0,0,1,6.285.42,4.657,4.657,0,0,1,7.84,1.7c.173.213.164.212.343-.006a4.249,4.249,0,0,1,6.128-.7,4.639,4.639,0,0,1,1.608,2.779c.033.163.057.327.085.491ZM4.493.965c-.083.007-.166.018-.249.021A3.044,3.044,0,0,0,2.7,1.471,3.79,3.79,0,0,0,.971,4.844,4.434,4.434,0,0,0,1.808,7.4a13.652,13.652,0,0,0,2.26,2.47C5.32,11,6.616,12.076,7.888,13.181c.1.084.149.079.243,0,1.093-.948,2.193-1.887,3.284-2.836a17.334,17.334,0,0,0,2.553-2.6,4.68,4.68,0,0,0,1.067-3.2,3.9,3.9,0,0,0-.928-2.4,3.279,3.279,0,0,0-3.126-1.123A3.169,3.169,0,0,0,9.123,2.091a6.728,6.728,0,0,0-.6.8.6.6,0,0,1-.792.221.828.828,0,0,1-.3-.312,4.794,4.794,0,0,0-.886-1.042A3.143,3.143,0,0,0,4.493.965" transform="translate(0 0)" fill="#0d0d0d"/>
  </g>
</svg>
