<svg id="Group_478" data-name="Group 478" xmlns="http://www.w3.org/2000/svg" xmlns:xlink="http://www.w3.org/1999/xlink" width="18.709" height="20.656" viewBox="0 0 18.709 20.656">
  <defs>
    <clipPath id="clip-path">
      <rect id="Rectangle_125" data-name="Rectangle 125" width="18.709" height="20.656"/>
    </clipPath>
  </defs>
  <g id="Group_380" data-name="Group 380" clip-path="url(#clip-path)">
    <path id="Path_13" data-name="Path 13" d="M8.916,20.656a3.19,3.19,0,0,1-1.5-.694,2.943,2.943,0,0,1-1.009-1.7C6.369,18.072,6.3,18,6.1,18c-1.236.011-2.473.007-3.71,0A2.363,2.363,0,0,1,0,15.671a2.412,2.412,0,0,1,2-2.326,2.7,2.7,0,0,1,.38-.04.255.255,0,0,0,.283-.288c0-.161,0-.323,0-.484,0-1.015,0-2.03,0-3.044a7.5,7.5,0,0,1,.5-3,6.606,6.606,0,0,1,3.7-3.682.3.3,0,0,0,.219-.372A2.29,2.29,0,0,1,8.706.074L8.956,0h.807A2.4,2.4,0,0,1,11.2.9a2.17,2.17,0,0,1,.437,1.63c-.022.155.05.209.177.264a6.823,6.823,0,0,1,3.913,4.281A7.013,7.013,0,0,1,16.054,9.3c.006,1.2,0,2.407,0,3.61,0,.339.037.375.38.394a2.394,2.394,0,0,1,2.273,2.3A2.308,2.308,0,0,1,16.475,18c-1.3.026-2.595.009-3.892,0-.155,0-.224.043-.259.2A2.977,2.977,0,0,1,9.86,20.635a.392.392,0,0,0-.057.021Zm.444-4.01q3.348,0,6.7,0a3.379,3.379,0,0,0,.482-.035.96.96,0,0,0,.773-1.151.991.991,0,0,0-.968-.766,1.673,1.673,0,0,1-1.678-1.758c.03-1.25.01-2.5.007-3.751a5.61,5.61,0,0,0-.68-2.688A5.24,5.24,0,0,0,6.316,4.654,5.13,5.13,0,0,0,4.053,8.942c-.029,1.378,0,2.756-.007,4.135a1.6,1.6,0,0,1-1.152,1.534,2.5,2.5,0,0,1-.577.085,1,1,0,0,0-.894.7.966.966,0,0,0,.388,1.064,1.3,1.3,0,0,0,.792.183q3.378,0,6.757,0m-.007,1.361c-.47,0-.939,0-1.409,0-.153,0-.185.042-.138.187a1.641,1.641,0,0,0,3.106.006c.054-.163,0-.2-.151-.193-.47.007-.939,0-1.409,0m.922-15.788a.928.928,0,0,0-.91-.864.938.938,0,0,0-.922.845c0,.137.048.181.179.165a6.242,6.242,0,0,1,1.487,0c.122.014.182-.025.167-.143" transform="translate(0)"/>
  </g>
</svg>
