<svg id="Group_464" data-name="Group 464" xmlns="http://www.w3.org/2000/svg" xmlns:xlink="http://www.w3.org/1999/xlink" width="16.385" height="16.394" viewBox="0 0 16.385 16.394">
  <defs>
    <clipPath id="clip-path">
      <rect id="Rectangle_149" data-name="Rectangle 149" width="16.385" height="16.394" fill="none"/>
    </clipPath>
  </defs>
  <g id="Group_463" data-name="Group 463" clip-path="url(#clip-path)">
    <path id="Path_45" data-name="Path 45" d="M0,24.829a2.838,2.838,0,0,1,.428-1.176A1.9,1.9,0,0,1,.6,23.424a19.938,19.938,0,0,1,1.543-1.53,1.543,1.543,0,0,1,1.988.01,8,8,0,0,1,.614.583c.537.549,1.1,1.067,1.612,1.643a1.528,1.528,0,0,1,.021,2.058,15.087,15.087,0,0,1-1.1,1.119.235.235,0,0,0-.061.328,8.186,8.186,0,0,0,1.151,1.647A11.706,11.706,0,0,0,8.754,31.4c.2.13.407.232.612.345a.171.171,0,0,0,.238-.037q.454-.462.916-.916a1.863,1.863,0,0,1,.995-.572,1.5,1.5,0,0,1,1.263.358c.254.212.477.457.709.692.43.437.865.869,1.3,1.3a2.761,2.761,0,0,1,.322.376,1.556,1.556,0,0,1-.054,1.863,3.367,3.367,0,0,1-.274.312c-.423.429-.828.877-1.278,1.275a2.645,2.645,0,0,1-2.112.575A9.5,9.5,0,0,1,7.8,35.717a15.68,15.68,0,0,1-3.682-2.765A16.444,16.444,0,0,1,.968,28.626a9.378,9.378,0,0,1-.93-2.777C.026,25.765.013,25.681,0,25.6v-.768m9.514,8.007a.555.555,0,0,1-.318-.082c-.305-.163-.619-.311-.911-.5A12.266,12.266,0,0,1,5.8,30.1,9.06,9.06,0,0,1,4.259,27.86a.8.8,0,0,1,.219-1.123c.371-.337.721-.7,1.071-1.055a.627.627,0,0,0,0-1.015q-.924-.942-1.859-1.873a.678.678,0,0,0-1.109,0c-.366.358-.726.722-1.086,1.085a1.659,1.659,0,0,0-.5.945,4.04,4.04,0,0,0,.209,1.794A12.227,12.227,0,0,0,2.9,29.99a16.508,16.508,0,0,0,2.806,3.117,14.892,14.892,0,0,0,3.2,2.1,7.138,7.138,0,0,0,2.769.825,1.664,1.664,0,0,0,1.33-.465c.3-.306.6-.618.9-.927.111-.115.229-.224.333-.345a.634.634,0,0,0-.011-.9c-.049-.056-.1-.109-.155-.162l-1.3-1.3c-.185-.185-.367-.372-.555-.553a.59.59,0,0,0-.872-.039,2.137,2.137,0,0,0-.177.162q-.544.542-1.086,1.085a.749.749,0,0,1-.573.247" transform="translate(0 -20.606)"/>
    <path id="Path_46" data-name="Path 46" d="M199.536,0a11.107,11.107,0,0,1,1.713.506,8.892,8.892,0,0,1,3.213,2.237,8.8,8.8,0,0,1,1.817,3,9.44,9.44,0,0,1,.39,1.481.478.478,0,0,1-.925.231c-.1-.3-.135-.612-.225-.914a7.834,7.834,0,0,0-3.725-4.7,7.523,7.523,0,0,0-2.375-.868c-.047-.009-.093-.022-.14-.032a.458.458,0,0,1-.389-.375.467.467,0,0,1,.23-.519c.022-.014.043-.031.064-.047Z" transform="translate(-190.291)"/>
    <path id="Path_47" data-name="Path 47" d="M196.244,68.636A4.38,4.38,0,0,1,197.5,69a5.358,5.358,0,0,1,3.058,3.562c.038.133.064.269.09.405a.492.492,0,0,1-.338.6.479.479,0,0,1-.6-.382,5.085,5.085,0,0,0-.4-1.208,4.378,4.378,0,0,0-3.079-2.372c-.052-.011-.1-.021-.156-.035a.48.48,0,0,1,.177-.943" transform="translate(-187.242 -65.672)"/>
  </g>
</svg>
