<svg id="Group_462" data-name="Group 462" xmlns="http://www.w3.org/2000/svg" xmlns:xlink="http://www.w3.org/1999/xlink" width="17.847" height="12.576" viewBox="0 0 17.847 12.576">
  <defs>
    <clipPath id="clip-path">
      <rect id="Rectangle_148" data-name="Rectangle 148" width="17.847" height="12.576" fill="none"/>
    </clipPath>
  </defs>
  <g id="Group_461" data-name="Group 461" clip-path="url(#clip-path)">
    <path id="Path_44" data-name="Path 44" d="M17.847,1.268V11.307c-.024.071-.047.143-.072.214a1.564,1.564,0,0,1-1.458,1.053q-7.393,0-14.786,0a1.474,1.474,0,0,1-.639-.149A1.648,1.648,0,0,1,0,11.307V1.268c.022-.066.043-.132.066-.2A1.568,1.568,0,0,1,1.53,0Q8.924,0,16.317,0a1.473,1.473,0,0,1,.654.155,1.653,1.653,0,0,1,.875,1.113m-1.908-.182H1.906c.015.076.069.107.108.147L8.421,7.665a.616.616,0,0,0,1.007,0q3.2-3.215,6.407-6.432c.039-.039.094-.069.1-.145m0,10.4c.007-.059-.033-.08-.06-.107q-2.1-2.1-4.192-4.209c-.092-.093-.151-.087-.24,0-.427.435-.859.865-1.29,1.3a1.667,1.667,0,0,1-2.451,0L6.444,7.219c-.159-.16-.16-.16-.323,0q-2.054,2.06-4.108,4.121c-.039.04-.094.07-.106.146ZM1.071,1.844v8.849c.091-.009.126-.076.172-.123Q3.3,8.511,5.354,6.45c.162-.162.162-.163,0-.326L1.231,1.991c-.04-.04-.084-.077-.16-.147m15.709.036a.228.228,0,0,0-.145.095q-2.086,2.09-4.172,4.18c-.1.1-.1.165,0,.267q2.089,2.087,4.173,4.179c.037.037.064.1.145.085Z" transform="translate(0 0)"/>
  </g>
</svg>
