<svg xmlns="http://www.w3.org/2000/svg" width="18.091" height="18" viewBox="0 0 18.091 18">
  <g id="Group_150" data-name="Group 150" transform="translate(-271 -296.5)">
    <g id="edit" transform="translate(271 296.5)">
      <path id="Path_6" data-name="Path 6" d="M16.7,48.715a.451.451,0,0,0-.451.451v4a1.353,1.353,0,0,1-1.352,1.352H2.253A1.353,1.353,0,0,1,.9,53.166V41.425a1.353,1.353,0,0,1,1.352-1.352h4a.451.451,0,1,0,0-.9h-4A2.255,2.255,0,0,0,0,41.425V53.166a2.255,2.255,0,0,0,2.253,2.253H14.895a2.255,2.255,0,0,0,2.253-2.253v-4A.451.451,0,0,0,16.7,48.715Zm0,0" transform="translate(0 -37.419)"/>
      <path id="Path_7" data-name="Path 7" d="M120.285.855a2.028,2.028,0,0,0-2.867,0l-8.038,8.038a.45.45,0,0,0-.116.2l-1.057,3.816a.45.45,0,0,0,.554.555l3.816-1.057a.45.45,0,0,0,.2-.116l8.038-8.038a2.03,2.03,0,0,0,0-2.867Zm-9.924,8.331,6.579-6.579,2.122,2.122-6.579,6.579Zm-.424.85,1.7,1.7-2.345.65Zm10.239-6.423-.478.478L117.577,1.97l.478-.478a1.126,1.126,0,0,1,1.593,0l.529.529A1.128,1.128,0,0,1,120.176,3.614Zm0,0" transform="translate(-103.316 -0.261)"/>
    </g>
  </g>
</svg>
