<svg xmlns="http://www.w3.org/2000/svg" width="40" height="21.818" viewBox="0 0 40 21.818">
  <path id="toggle_off_FILL0_wght400_GRAD0_opsz24" d="M50.909-698.182a10.521,10.521,0,0,1-7.727-3.182A10.52,10.52,0,0,1,40-709.091a10.52,10.52,0,0,1,3.182-7.727A10.52,10.52,0,0,1,50.909-720H69.091a10.52,10.52,0,0,1,7.727,3.182A10.52,10.52,0,0,1,80-709.091a10.52,10.52,0,0,1-3.182,7.727,10.521,10.521,0,0,1-7.727,3.182Zm0-3.636H69.091a7,7,0,0,0,5.136-2.136,7,7,0,0,0,2.136-5.136,7,7,0,0,0-2.136-5.136,7,7,0,0,0-5.136-2.136H50.909a7,7,0,0,0-5.136,2.136,7,7,0,0,0-2.136,5.136,7,7,0,0,0,2.136,5.136A7,7,0,0,0,50.909-701.818Zm0-1.818a5.26,5.26,0,0,0,3.864-1.591,5.26,5.26,0,0,0,1.591-3.864,5.26,5.26,0,0,0-1.591-3.864,5.26,5.26,0,0,0-3.864-1.591,5.26,5.26,0,0,0-3.864,1.591,5.26,5.26,0,0,0-1.591,3.864,5.26,5.26,0,0,0,1.591,3.864A5.26,5.26,0,0,0,50.909-703.636ZM60-709.091Z" transform="translate(-40 720)" fill="#515151"/>
</svg>
