<svg xmlns="http://www.w3.org/2000/svg" width="40" height="40" viewBox="0 0 40 40">
  <path id="error_FILL0_wght400_GRAD0_opsz24" d="M100-850a1.935,1.935,0,0,0,1.425-.575A1.935,1.935,0,0,0,102-852a1.935,1.935,0,0,0-.575-1.425A1.935,1.935,0,0,0,100-854a1.935,1.935,0,0,0-1.425.575A1.935,1.935,0,0,0,98-852a1.935,1.935,0,0,0,.575,1.425A1.935,1.935,0,0,0,100-850Zm-2-8h4v-12H98Zm2,18a19.475,19.475,0,0,1-7.8-1.575,20.2,20.2,0,0,1-6.35-4.275,20.2,20.2,0,0,1-4.275-6.35A19.475,19.475,0,0,1,80-860a19.475,19.475,0,0,1,1.575-7.8,20.2,20.2,0,0,1,4.275-6.35,20.2,20.2,0,0,1,6.35-4.275A19.475,19.475,0,0,1,100-880a19.475,19.475,0,0,1,7.8,1.575,20.2,20.2,0,0,1,6.35,4.275,20.2,20.2,0,0,1,4.275,6.35A19.475,19.475,0,0,1,120-860a19.475,19.475,0,0,1-1.575,7.8,20.2,20.2,0,0,1-4.275,6.35,20.2,20.2,0,0,1-6.35,4.275A19.475,19.475,0,0,1,100-840Zm0-4a15.442,15.442,0,0,0,11.35-4.65A15.442,15.442,0,0,0,116-860a15.442,15.442,0,0,0-4.65-11.35A15.442,15.442,0,0,0,100-876a15.442,15.442,0,0,0-11.35,4.65A15.442,15.442,0,0,0,84-860a15.442,15.442,0,0,0,4.65,11.35A15.442,15.442,0,0,0,100-844ZM100-860Z" transform="translate(-80 880)" fill="#fff"/>
</svg>
