<svg xmlns="http://www.w3.org/2000/svg" width="36" height="40" viewBox="0 0 36 40">
  <g id="Group_6" data-name="Group 6" transform="translate(-298 -283)">
    <path id="content_paste_FILL0_wght400_GRAD0_opsz24" d="M124-880a3.852,3.852,0,0,1-2.825-1.175A3.852,3.852,0,0,1,120-884v-28a3.852,3.852,0,0,1,1.175-2.825A3.852,3.852,0,0,1,124-916h8.35a5.453,5.453,0,0,1,2.15-2.875A5.957,5.957,0,0,1,138-920a6,6,0,0,1,3.575,1.125A5.493,5.493,0,0,1,143.7-916H152a3.852,3.852,0,0,1,2.825,1.175A3.852,3.852,0,0,1,156-912v28a3.852,3.852,0,0,1-1.175,2.825A3.852,3.852,0,0,1,152-880Zm0-4h28v-28h-4v6H128v-6h-4Zm14-28a1.935,1.935,0,0,0,1.425-.575A1.935,1.935,0,0,0,140-914a1.935,1.935,0,0,0-.575-1.425A1.935,1.935,0,0,0,138-916a1.935,1.935,0,0,0-1.425.575A1.935,1.935,0,0,0,136-914a1.935,1.935,0,0,0,.575,1.425A1.935,1.935,0,0,0,138-912Z" transform="translate(178 1203)" fill="#fff"/>
    <path id="add_circle_FILL0_wght400_GRAD0_opsz24" d="M87.707-867.156h1.713v-3.425h3.425v-1.713H89.419v-3.425H87.707v3.425H84.281v1.713h3.425Zm.856,4.281a8.338,8.338,0,0,1-3.339-.674,8.647,8.647,0,0,1-2.719-1.83,8.647,8.647,0,0,1-1.83-2.719,8.339,8.339,0,0,1-.674-3.34,8.338,8.338,0,0,1,.674-3.339A8.647,8.647,0,0,1,82.5-877.5a8.648,8.648,0,0,1,2.719-1.83A8.338,8.338,0,0,1,88.563-880a8.338,8.338,0,0,1,3.339.674,8.648,8.648,0,0,1,2.719,1.83,8.647,8.647,0,0,1,1.83,2.719,8.338,8.338,0,0,1,.674,3.339,8.339,8.339,0,0,1-.674,3.34,8.647,8.647,0,0,1-1.83,2.719,8.647,8.647,0,0,1-2.719,1.83A8.338,8.338,0,0,1,88.563-862.874Zm0-1.713a6.611,6.611,0,0,0,4.859-1.991,6.611,6.611,0,0,0,1.991-4.859,6.611,6.611,0,0,0-1.991-4.859,6.611,6.611,0,0,0-4.859-1.991A6.611,6.611,0,0,0,83.7-876.3a6.611,6.611,0,0,0-1.991,4.859,6.611,6.611,0,0,0,1.991,4.859A6.611,6.611,0,0,0,88.563-864.587ZM88.563-871.437Z" transform="translate(227 1179.437)" fill="#fff"/>
  </g>
</svg>
