<svg xmlns="http://www.w3.org/2000/svg" width="40" height="40" viewBox="0 0 40 40">
  <path id="quiz_FILL0_wght400_GRAD0_opsz24" d="M104-854a2.017,2.017,0,0,0,1.475-.625,2.017,2.017,0,0,0,.625-1.475,2.017,2.017,0,0,0-.625-1.475A2.017,2.017,0,0,0,104-858.2a2.017,2.017,0,0,0-1.475.625,2.017,2.017,0,0,0-.625,1.475,2.017,2.017,0,0,0,.625,1.475A2.017,2.017,0,0,0,104-854Zm-1.5-6.4h3a5.572,5.572,0,0,1,.3-2.125,6.816,6.816,0,0,1,1.4-1.775,11.875,11.875,0,0,0,2-2.425,4.507,4.507,0,0,0,.5-2.175,4.73,4.73,0,0,0-1.575-3.675A5.912,5.912,0,0,0,104-874a5.771,5.771,0,0,0-3.575,1.15A5.965,5.965,0,0,0,98.3-869.8l2.7,1.1a4.139,4.139,0,0,1,1.225-1.875A2.749,2.749,0,0,1,104-871.2a2.8,2.8,0,0,1,1.95.675,2.333,2.333,0,0,1,.75,1.825,2.417,2.417,0,0,1-.4,1.325,9.358,9.358,0,0,1-1.4,1.575,8.312,8.312,0,0,0-2.025,2.275A8.654,8.654,0,0,0,102.5-860.4ZM92-848a3.852,3.852,0,0,1-2.825-1.175A3.852,3.852,0,0,1,88-852v-24a3.852,3.852,0,0,1,1.175-2.825A3.852,3.852,0,0,1,92-880h24a3.852,3.852,0,0,1,2.825,1.175A3.852,3.852,0,0,1,120-876v24a3.852,3.852,0,0,1-1.175,2.825A3.852,3.852,0,0,1,116-848Zm0-4h24v-24H92Zm-8,12a3.852,3.852,0,0,1-2.825-1.175A3.852,3.852,0,0,1,80-844v-28h4v28h28v4Zm8-36v0Z" transform="translate(-80 880)" fill="#fff"/>
</svg>
