<svg id="Group_898" data-name="Group 898" xmlns="http://www.w3.org/2000/svg" xmlns:xlink="http://www.w3.org/1999/xlink" width="16" height="18.167" viewBox="0 0 16 18.167">
  <defs>
    <clipPath id="clip-path">
      <rect id="Rectangle_162" data-name="Rectangle 162" width="16" height="18.167" fill="none"/>
    </clipPath>
  </defs>
  <g id="Group_604" data-name="Group 604" clip-path="url(#clip-path)">
    <path id="Path_82" data-name="Path 82" d="M.37,232.225A.639.639,0,0,1,0,231.581a7.028,7.028,0,0,1,5.606-6.769,6.085,6.085,0,0,1,1.214-.123c.8.006,1.6-.008,2.393,0a6.624,6.624,0,0,1,4.326,1.661,6.923,6.923,0,0,1,2.364,4.169,7.313,7.313,0,0,1,.1,1.04.636.636,0,0,1-.371.662Zm7.61-1.077h2.891c1.271,0,2.542,0,3.813,0,.147,0,.19-.031.168-.192a5.832,5.832,0,0,0-1.985-3.734,5.617,5.617,0,0,0-3.441-1.42c-.567-.036-1.135-.017-1.7-.023a10.969,10.969,0,0,0-1.557.061A5.877,5.877,0,0,0,1.153,230.9c-.036.292,0,.244.229.244h6.6" transform="translate(0 -214.058)" fill="#fff"/>
    <path id="Path_83" data-name="Path 83" d="M72.876,0a5.168,5.168,0,0,1,1.444.408,4.7,4.7,0,0,1,2.787,3.781A4.8,4.8,0,1,1,71.394.074c.138-.028.278-.05.418-.074ZM68.631,4.792a3.708,3.708,0,1,0,3.707-3.706,3.7,3.7,0,0,0-3.707,3.706" transform="translate(-64.344)" fill="#fff"/>
  </g>
</svg>
