<svg xmlns="http://www.w3.org/2000/svg" width="32" height="40" viewBox="0 0 32 40">
  <g id="Group_3" data-name="Group 3" transform="translate(-478 -285)">
    <path id="description_FILL0_wght400_GRAD0_opsz24" d="M164-840a3.852,3.852,0,0,1-2.825-1.175A3.852,3.852,0,0,1,160-844v-32a3.852,3.852,0,0,1,1.175-2.825A3.852,3.852,0,0,1,164-880h16l12,12v24a3.852,3.852,0,0,1-1.175,2.825A3.852,3.852,0,0,1,188-840Zm14-26v-10H164v32h24v-22Zm-14-10v0Z" transform="translate(318 1165)" fill="#fff"/>
    <path id="verified_user_FILL0_wght400_GRAD0_opsz24" d="M166.132-868.045l4.985-4.985-1.257-1.257-3.728,3.728-1.853-1.853-1.257,1.257Zm.926,5.691A8.79,8.79,0,0,1,162-865.872a10.132,10.132,0,0,1-2-6.1v-5.382L167.058-880l7.058,2.647v5.382a10.132,10.132,0,0,1-2,6.1A8.79,8.79,0,0,1,167.058-862.354Zm0-1.853a7.18,7.18,0,0,0,3.794-2.912,8.38,8.38,0,0,0,1.5-4.853v-4.169l-5.294-1.985-5.294,1.985v4.169a8.38,8.38,0,0,0,1.5,4.853A7.18,7.18,0,0,0,167.058-864.207ZM167.058-871.177Z" transform="translate(327 1181)" fill="#fff"/>
  </g>
</svg>
