<svg xmlns="http://www.w3.org/2000/svg" width="36" height="40" viewBox="0 0 36 40">
  <path id="content_paste_FILL0_wght400_GRAD0_opsz24" d="M124-880a3.852,3.852,0,0,1-2.825-1.175A3.852,3.852,0,0,1,120-884v-28a3.852,3.852,0,0,1,1.175-2.825A3.852,3.852,0,0,1,124-916h8.35a5.453,5.453,0,0,1,2.15-2.875A5.957,5.957,0,0,1,138-920a6,6,0,0,1,3.575,1.125A5.493,5.493,0,0,1,143.7-916H152a3.852,3.852,0,0,1,2.825,1.175A3.852,3.852,0,0,1,156-912v28a3.852,3.852,0,0,1-1.175,2.825A3.852,3.852,0,0,1,152-880Zm0-4h28v-28h-4v6H128v-6h-4Zm14-28a1.935,1.935,0,0,0,1.425-.575A1.935,1.935,0,0,0,140-914a1.935,1.935,0,0,0-.575-1.425A1.935,1.935,0,0,0,138-916a1.935,1.935,0,0,0-1.425.575A1.935,1.935,0,0,0,136-914a1.935,1.935,0,0,0,.575,1.425A1.935,1.935,0,0,0,138-912Z" transform="translate(-120 920)" fill="#fff"/>
</svg>
