<svg xmlns="http://www.w3.org/2000/svg" width="32" height="40" viewBox="0 0 32 40">
  <g id="Group_4" data-name="Group 4" transform="translate(-478 -285)">
    <path id="description_FILL0_wght400_GRAD0_opsz24" d="M164-840a3.852,3.852,0,0,1-2.825-1.175A3.852,3.852,0,0,1,160-844v-32a3.852,3.852,0,0,1,1.175-2.825A3.852,3.852,0,0,1,164-880h16l12,12v24a3.852,3.852,0,0,1-1.175,2.825A3.852,3.852,0,0,1,188-840Zm14-26v-10H164v32h24v-22Zm-14-10v0Z" transform="translate(318 1165)" fill="#fff"/>
    <path id="add_circle_FILL0_wght400_GRAD0_opsz24" d="M86.306-869.49h1.4v-2.8h2.8v-1.4h-2.8v-2.8h-1.4v2.8H83.5v1.4h2.8Zm.7,3.5a6.823,6.823,0,0,1-2.733-.552,7.077,7.077,0,0,1-2.225-1.5,7.075,7.075,0,0,1-1.5-2.224A6.823,6.823,0,0,1,80-872.993a6.823,6.823,0,0,1,.552-2.733,7.076,7.076,0,0,1,1.5-2.225,7.077,7.077,0,0,1,2.225-1.5A6.823,6.823,0,0,1,87.006-880a6.823,6.823,0,0,1,2.733.552,7.076,7.076,0,0,1,2.225,1.5,7.076,7.076,0,0,1,1.5,2.225,6.822,6.822,0,0,1,.552,2.733,6.823,6.823,0,0,1-.552,2.733,7.075,7.075,0,0,1-1.5,2.224,7.076,7.076,0,0,1-2.225,1.5A6.823,6.823,0,0,1,87.006-865.987Zm0-1.4a5.41,5.41,0,0,0,3.976-1.629,5.41,5.41,0,0,0,1.629-3.976,5.409,5.409,0,0,0-1.629-3.976,5.41,5.41,0,0,0-3.976-1.629,5.41,5.41,0,0,0-3.976,1.629,5.409,5.409,0,0,0-1.629,3.976,5.41,5.41,0,0,0,1.629,3.976A5.41,5.41,0,0,0,87.006-867.388ZM87.006-872.993Z" transform="translate(406.994 1181.994)" fill="#fff"/>
  </g>
</svg>
