<svg xmlns="http://www.w3.org/2000/svg" width="36" height="40" viewBox="0 0 36 40">
  <g id="Group_5" data-name="Group 5" transform="translate(-383 -283)">
    <path id="content_paste_FILL0_wght400_GRAD0_opsz24" d="M124-880a3.852,3.852,0,0,1-2.825-1.175A3.852,3.852,0,0,1,120-884v-28a3.852,3.852,0,0,1,1.175-2.825A3.852,3.852,0,0,1,124-916h8.35a5.453,5.453,0,0,1,2.15-2.875A5.957,5.957,0,0,1,138-920a6,6,0,0,1,3.575,1.125A5.493,5.493,0,0,1,143.7-916H152a3.852,3.852,0,0,1,2.825,1.175A3.852,3.852,0,0,1,156-912v28a3.852,3.852,0,0,1-1.175,2.825A3.852,3.852,0,0,1,152-880Zm0-4h28v-28h-4v6H128v-6h-4Zm14-28a1.935,1.935,0,0,0,1.425-.575A1.935,1.935,0,0,0,140-914a1.935,1.935,0,0,0-.575-1.425A1.935,1.935,0,0,0,138-916a1.935,1.935,0,0,0-1.425.575A1.935,1.935,0,0,0,136-914a1.935,1.935,0,0,0,.575,1.425A1.935,1.935,0,0,0,138-912Z" transform="translate(263 1203)" fill="#fff"/>
    <path id="sync_alt_FILL0_wght400_GRAD0_opsz24" d="M84.444-824,80-828.444l4.444-4.444,1.267,1.245L83.4-829.333H96.889v1.778H83.4l2.311,2.311Zm8.889-7.111-1.267-1.244,2.311-2.311H80.889v-1.778H94.378l-2.311-2.311L93.333-840l4.444,4.444Z" transform="translate(312 1140)" fill="#fff"/>
  </g>
</svg>
