<svg xmlns="http://www.w3.org/2000/svg" xmlns:xlink="http://www.w3.org/1999/xlink" width="16" height="16" viewBox="0 0 16 16">
  <defs>
    <clipPath id="clip-path">
      <rect id="Rectangle_127" data-name="Rectangle 127" width="16" height="16" transform="translate(0.016 0.015)" fill="none"/>
    </clipPath>
  </defs>
  <g id="Group_385" data-name="Group 385" transform="translate(5.879 -0.121)">
    <g id="Group_384" data-name="Group 384" transform="translate(-5.894 0.106)" clip-path="url(#clip-path)">
      <path id="Path_15" data-name="Path 15" d="M0,274.24a.654.654,0,0,1,.653-.352c2.44,0,4.88,0,7.32.006a.258.258,0,0,0,.3-.215,2.367,2.367,0,0,1,4.514.046.2.2,0,0,0,.235.167c.838,0,1.676,0,2.514,0a.666.666,0,0,1,.669.352v.348a.619.619,0,0,1-.627.36c-.843-.01-1.687,0-2.53-.006-.148,0-.223.033-.266.188a2.223,2.223,0,0,1-.581.964,2.5,2.5,0,0,1-1.28.677h-.823c-.05-.016-.1-.034-.15-.048a2.334,2.334,0,0,1-1.685-1.585.24.24,0,0,0-.277-.2c-2.451,0-4.9,0-7.354.007a.623.623,0,0,1-.627-.36Zm10.52-1.137a1.32,1.32,0,0,0-1.333,1.319,1.342,1.342,0,0,0,1.318,1.326,1.316,1.316,0,0,0,1.329-1.32,1.3,1.3,0,0,0-1.315-1.326" transform="translate(-0.084 -260.656)"/>
      <path id="Path_16" data-name="Path 16" d="M16.2,2.531a.655.655,0,0,1-.654.352c-.843-.006-1.686,0-2.529,0a.2.2,0,0,0-.234.167,2.368,2.368,0,0,1-4.525.017A.22.22,0,0,0,8,2.878c-2.445,0-4.89,0-7.335.005A.669.669,0,0,1,0,2.531V2.183a.618.618,0,0,1,.627-.36c2.452.006,4.9,0,7.355.007.155,0,.229-.036.277-.2a2.288,2.288,0,0,1,.7-1.071A2.732,2.732,0,0,1,10.093,0h.823l.152.041a2.341,2.341,0,0,1,1.709,1.6.23.23,0,0,0,.266.187c.838-.006,1.676,0,2.514-.007a.627.627,0,0,1,.643.361ZM11.835,2.35a1.318,1.318,0,0,0-1.322-1.328A1.342,1.342,0,0,0,9.187,2.357a1.32,1.32,0,0,0,1.325,1.311A1.3,1.3,0,0,0,11.835,2.35" transform="translate(-0.085 -0.085)"/>
      <path id="Path_17" data-name="Path 17" d="M0,137.845a.567.567,0,0,1,.587-.362c.854.008,1.708,0,2.561.006a.233.233,0,0,0,.275-.2,2.364,2.364,0,0,1,4.517-.007c.052.169.129.2.287.2,2.451,0,4.9,0,7.352-.007a.6.6,0,0,1,.62.363v.316a.576.576,0,0,1-.588.362c-2.466-.005-4.932,0-7.4-.007a.236.236,0,0,0-.272.2,2.365,2.365,0,0,1-4.523-.018.216.216,0,0,0-.253-.182c-.859.006-1.718,0-2.577.006A.58.58,0,0,1,0,138.161ZM4.365,138a1.307,1.307,0,0,0,1.323,1.323,1.322,1.322,0,1,0,0-2.644A1.305,1.305,0,0,0,4.365,138" transform="translate(-0.085 -129.987)"/>
    </g>
  </g>
</svg>
