<svg xmlns="http://www.w3.org/2000/svg" width="15" height="17" viewBox="0 0 15 17">
  <g id="Polygon_2" data-name="Polygon 2" transform="translate(15) rotate(90)" fill="#fff">
    <path d="M 13.56787967681885 14.5 L 3.432130098342896 14.5 C 2.892369985580444 14.5 2.407870054244995 14.22158050537109 2.136110067367554 13.75522041320801 C 1.864359974861145 13.28886032104492 1.860980033874512 12.73009014129639 2.127089977264404 12.26049041748047 L 7.194960117340088 3.317180156707764 C 7.464799880981445 2.840990304946899 7.952670097351074 2.556690216064453 8.5 2.556690216064453 C 9.047329902648926 2.556690216064453 9.535189628601074 2.840980291366577 9.80502986907959 3.317170143127441 L 14.87290954589844 12.26049041748047 C 15.13901996612549 12.73009014129639 15.13564014434814 13.28886032104492 14.86388969421387 13.75522041320801 C 14.59212970733643 14.22158050537109 14.10764026641846 14.5 13.56787967681885 14.5 Z" stroke="none"/>
    <path d="M 8.5 3.056690216064453 C 8.324790000915527 3.056690216064453 7.889269828796387 3.106090545654297 7.629969596862793 3.563680648803711 L 2.562100410461426 12.50698089599609 C 2.306389808654785 12.9582405090332 2.481120109558105 13.3541898727417 2.568120002746582 13.50347995758057 C 2.655110359191895 13.65277004241943 2.913450241088867 14 3.432120323181152 14 L 13.56787014007568 14 C 14.08654975891113 14 14.34489059448242 13.65277004241943 14.43187999725342 13.50347995758057 C 14.51887989044189 13.3541898727417 14.69361019134521 12.9582405090332 14.43790054321289 12.50698089599609 L 9.370019912719727 3.563680648803711 C 9.110719680786133 3.106090545654297 8.675209999084473 3.056690216064453 8.5 3.056690216064453 M 8.499999046325684 2.056693077087402 C 9.178492546081543 2.056693077087402 9.856985092163086 2.394684791564941 10.24003982543945 3.070670127868652 L 15.30792045593262 12.01397037506104 C 16.06344032287598 13.34724044799805 15.1003303527832 15 13.56787014007568 15 L 3.432120323181152 15 C 1.899669647216797 15 0.9365596771240234 13.34724044799805 1.692079544067383 12.01397037506104 L 6.759949684143066 3.070670127868652 C 7.143010139465332 2.394684791564941 7.821504592895508 2.056693077087402 8.499999046325684 2.056693077087402 Z" stroke="none" fill="#000"/>
  </g>
</svg>
