<svg xmlns="http://www.w3.org/2000/svg" xmlns:xlink="http://www.w3.org/1999/xlink" width="19.931" height="19.93" viewBox="0 0 19.931 19.93">
  <defs>
    <clipPath id="clip-path">
      <rect id="Rectangle_126" data-name="Rectangle 126" width="19.931" height="19.93" fill="#fff"/>
    </clipPath>
  </defs>
  <g id="Group_821" data-name="Group 821" transform="translate(-339.06 -45)">
    <g id="Group_639" data-name="Group 639" transform="translate(339.06 45)">
      <g id="Group_382" data-name="Group 382" clip-path="url(#clip-path)">
        <path id="Path_14" data-name="Path 14" d="M8.712,0a8.991,8.991,0,0,1,1.54.3,7.846,7.846,0,0,1,5.613,6.11,7.7,7.7,0,0,1-1.4,6.367c-.093.128-.065.191.033.289q2.547,2.54,5.089,5.084a1.015,1.015,0,1,1-1.382,1.487c-.5-.483-.982-.979-1.473-1.469q-1.828-1.828-3.654-3.659c-.114-.114-.183-.128-.319-.028A7.9,7.9,0,0,1,8.782,16,8.021,8.021,0,0,1,.1,9.363c-.035-.2-.065-.408-.1-.612V7.273c.025-.179.042-.359.077-.536A7.962,7.962,0,0,1,5.754.306,9.016,9.016,0,0,1,7.312,0ZM14,8.023a6,6,0,1,0-6,5.985,6,6,0,0,0,6-5.985" fill="#fff"/>
      </g>
    </g>
  </g>
</svg>
